<svg width="360" height="40" viewBox="0 0 360 40" fill="none" xmlns="http://www.w3.org/2000/svg">
<rect width="360" height="40" rx="8" fill="#D9D9D9"/>
<path d="M23 27C27.4183 27 31 23.4183 31 19C31 14.5817 27.4183 11 23 11C18.5817 11 15 14.5817 15 19C15 23.4183 18.5817 27 23 27Z" stroke="black" stroke-width="2" stroke-linecap="round" stroke-linejoin="round"/>
<path d="M32.9999 29.0004L28.6499 24.6504" stroke="black" stroke-width="2" stroke-linecap="round" stroke-linejoin="round"/>
<path d="M49.4091 26V14.3636H53.3409C54.25 14.3636 54.9962 14.5189 55.5795 14.8295C56.1629 15.1364 56.5947 15.5587 56.875 16.0966C57.1553 16.6345 57.2955 17.2462 57.2955 17.9318C57.2955 18.6174 57.1553 19.2254 56.875 19.7557C56.5947 20.286 56.1648 20.7027 55.5852 21.0057C55.0057 21.3049 54.2652 21.4545 53.3636 21.4545H50.1818V20.1818H53.3182C53.9394 20.1818 54.4394 20.0909 54.8182 19.9091C55.2008 19.7273 55.4773 19.4697 55.6477 19.1364C55.822 18.7992 55.9091 18.3977 55.9091 17.9318C55.9091 17.4659 55.822 17.0587 55.6477 16.7102C55.4735 16.3617 55.1951 16.0928 54.8125 15.9034C54.4299 15.7102 53.9242 15.6136 53.2955 15.6136H50.8182V26H49.4091ZM54.8864 20.7727L57.75 26H56.1136L53.2955 20.7727H54.8864ZM63.027 26.1818C62.1861 26.1818 61.4607 25.9962 60.8509 25.625C60.2448 25.25 59.777 24.7273 59.4474 24.0568C59.1217 23.3826 58.9588 22.5985 58.9588 21.7045C58.9588 20.8106 59.1217 20.0227 59.4474 19.3409C59.777 18.6553 60.2353 18.1212 60.8224 17.7386C61.4134 17.3523 62.1027 17.1591 62.8906 17.1591C63.3452 17.1591 63.794 17.2348 64.2372 17.3864C64.6804 17.5379 65.0838 17.7841 65.4474 18.125C65.8111 18.4621 66.1009 18.9091 66.3168 19.4659C66.5327 20.0227 66.6406 20.7083 66.6406 21.5227V22.0909H59.9134V20.9318H65.277C65.277 20.4394 65.1785 20 64.9815 19.6136C64.7884 19.2273 64.5118 18.9223 64.152 18.6989C63.7959 18.4754 63.3755 18.3636 62.8906 18.3636C62.3565 18.3636 61.8944 18.4962 61.5043 18.7614C61.1179 19.0227 60.8205 19.3636 60.6122 19.7841C60.4039 20.2045 60.2997 20.6553 60.2997 21.1364V21.9091C60.2997 22.5682 60.4134 23.1269 60.6406 23.5852C60.8717 24.0398 61.1918 24.3864 61.6009 24.625C62.0099 24.8598 62.4853 24.9773 63.027 24.9773C63.3793 24.9773 63.6974 24.928 63.9815 24.8295C64.2694 24.7273 64.5175 24.5758 64.7259 24.375C64.9342 24.1705 65.0952 23.9167 65.2088 23.6136L66.5043 23.9773C66.3679 24.4167 66.1387 24.803 65.8168 25.1364C65.4948 25.4659 65.0971 25.7235 64.6236 25.9091C64.1501 26.0909 63.6179 26.1818 63.027 26.1818ZM72.2259 26.1818C71.4077 26.1818 70.7031 25.9886 70.1122 25.6023C69.5213 25.2159 69.0668 24.6837 68.7486 24.0057C68.4304 23.3277 68.2713 22.553 68.2713 21.6818C68.2713 20.7955 68.4342 20.0133 68.7599 19.3352C69.0895 18.6534 69.5478 18.1212 70.1349 17.7386C70.7259 17.3523 71.4152 17.1591 72.2031 17.1591C72.8168 17.1591 73.3698 17.2727 73.8622 17.5C74.3546 17.7273 74.758 18.0455 75.0724 18.4545C75.3868 18.8636 75.5819 19.3409 75.6577 19.8864H74.3168C74.2145 19.4886 73.9872 19.1364 73.6349 18.8295C73.2865 18.5189 72.8168 18.3636 72.2259 18.3636C71.7031 18.3636 71.2448 18.5 70.8509 18.7727C70.4607 19.0417 70.1558 19.4223 69.9361 19.9148C69.7202 20.4034 69.6122 20.9773 69.6122 21.6364C69.6122 22.3106 69.7183 22.8977 69.9304 23.3977C70.1463 23.8977 70.4493 24.286 70.8395 24.5625C71.2334 24.839 71.6955 24.9773 72.2259 24.9773C72.5743 24.9773 72.8906 24.9167 73.1747 24.7955C73.4588 24.6742 73.6993 24.5 73.8963 24.2727C74.0933 24.0455 74.2334 23.7727 74.3168 23.4545H75.6577C75.5819 23.9697 75.3944 24.4337 75.0952 24.8466C74.7997 25.2557 74.4077 25.5814 73.919 25.8239C73.4342 26.0625 72.8698 26.1818 72.2259 26.1818ZM78.9588 20.75V26H77.6179V14.3636H78.9588V18.6364H79.0724C79.277 18.1856 79.5838 17.8277 79.9929 17.5625C80.4058 17.2936 80.955 17.1591 81.6406 17.1591C82.2353 17.1591 82.7562 17.2784 83.2031 17.517C83.6501 17.7519 83.9967 18.1136 84.2429 18.6023C84.4929 19.0871 84.6179 19.7045 84.6179 20.4545V26H83.277V20.5455C83.277 19.8523 83.0971 19.3163 82.7372 18.9375C82.3812 18.5549 81.8868 18.3636 81.2543 18.3636C80.8149 18.3636 80.4209 18.4564 80.0724 18.642C79.7277 18.8277 79.455 19.0985 79.2543 19.4545C79.0573 19.8106 78.9588 20.2424 78.9588 20.75ZM90.7301 26.1818C89.8892 26.1818 89.1638 25.9962 88.554 25.625C87.9479 25.25 87.4801 24.7273 87.1506 24.0568C86.8248 23.3826 86.6619 22.5985 86.6619 21.7045C86.6619 20.8106 86.8248 20.0227 87.1506 19.3409C87.4801 18.6553 87.9384 18.1212 88.5256 17.7386C89.1165 17.3523 89.8059 17.1591 90.5938 17.1591C91.0483 17.1591 91.4972 17.2348 91.9403 17.3864C92.3835 17.5379 92.7869 17.7841 93.1506 18.125C93.5142 18.4621 93.804 18.9091 94.0199 19.4659C94.2358 20.0227 94.3438 20.7083 94.3438 21.5227V22.0909H87.6165V20.9318H92.9801C92.9801 20.4394 92.8816 20 92.6847 19.6136C92.4915 19.2273 92.215 18.9223 91.8551 18.6989C91.4991 18.4754 91.0786 18.3636 90.5938 18.3636C90.0597 18.3636 89.5975 18.4962 89.2074 18.7614C88.821 19.0227 88.5237 19.3636 88.3153 19.7841C88.107 20.2045 88.0028 20.6553 88.0028 21.1364V21.9091C88.0028 22.5682 88.1165 23.1269 88.3438 23.5852C88.5748 24.0398 88.8949 24.3864 89.304 24.625C89.7131 24.8598 90.1884 24.9773 90.7301 24.9773C91.0824 24.9773 91.4006 24.928 91.6847 24.8295C91.9725 24.7273 92.2206 24.5758 92.429 24.375C92.6373 24.1705 92.7983 23.9167 92.9119 23.6136L94.2074 23.9773C94.071 24.4167 93.8419 24.803 93.5199 25.1364C93.1979 25.4659 92.8002 25.7235 92.3267 25.9091C91.8532 26.0909 91.321 26.1818 90.7301 26.1818ZM96.3835 26V17.2727H97.679V18.5909H97.7699C97.929 18.1591 98.2169 17.8087 98.6335 17.5398C99.0502 17.2708 99.5199 17.1364 100.043 17.1364C100.141 17.1364 100.264 17.1383 100.412 17.142C100.56 17.1458 100.671 17.1515 100.747 17.1591V18.5227C100.702 18.5114 100.598 18.4943 100.435 18.4716C100.276 18.4451 100.107 18.4318 99.929 18.4318C99.5047 18.4318 99.1259 18.5208 98.7926 18.6989C98.4631 18.8731 98.2017 19.1155 98.0085 19.4261C97.8191 19.733 97.7244 20.0833 97.7244 20.4773V26H96.3835ZM105.616 26.1818C104.798 26.1818 104.094 25.9886 103.503 25.6023C102.912 25.2159 102.457 24.6837 102.139 24.0057C101.821 23.3277 101.662 22.553 101.662 21.6818C101.662 20.7955 101.825 20.0133 102.151 19.3352C102.48 18.6534 102.938 18.1212 103.526 17.7386C104.116 17.3523 104.806 17.1591 105.594 17.1591C106.207 17.1591 106.76 17.2727 107.253 17.5C107.745 17.7273 108.149 18.0455 108.463 18.4545C108.777 18.8636 108.973 19.3409 109.048 19.8864H107.707C107.605 19.4886 107.378 19.1364 107.026 18.8295C106.677 18.5189 106.207 18.3636 105.616 18.3636C105.094 18.3636 104.635 18.5 104.241 18.7727C103.851 19.0417 103.546 19.4223 103.327 19.9148C103.111 20.4034 103.003 20.9773 103.003 21.6364C103.003 22.3106 103.109 22.8977 103.321 23.3977C103.537 23.8977 103.84 24.286 104.23 24.5625C104.624 24.839 105.086 24.9773 105.616 24.9773C105.965 24.9773 106.281 24.9167 106.565 24.7955C106.849 24.6742 107.09 24.5 107.287 24.2727C107.484 24.0455 107.624 23.7727 107.707 23.4545H109.048C108.973 23.9697 108.785 24.4337 108.486 24.8466C108.19 25.2557 107.798 25.5814 107.31 25.8239C106.825 26.0625 106.26 26.1818 105.616 26.1818ZM112.349 20.75V26H111.009V14.3636H112.349V18.6364H112.463C112.668 18.1856 112.974 17.8277 113.384 17.5625C113.796 17.2936 114.346 17.1591 115.031 17.1591C115.626 17.1591 116.147 17.2784 116.594 17.517C117.041 17.7519 117.387 18.1136 117.634 18.6023C117.884 19.0871 118.009 19.7045 118.009 20.4545V26H116.668V20.5455C116.668 19.8523 116.488 19.3163 116.128 18.9375C115.772 18.5549 115.277 18.3636 114.645 18.3636C114.205 18.3636 113.812 18.4564 113.463 18.642C113.118 18.8277 112.846 19.0985 112.645 19.4545C112.448 19.8106 112.349 20.2424 112.349 20.75ZM124.121 26.1818C123.28 26.1818 122.554 25.9962 121.945 25.625C121.339 25.25 120.871 24.7273 120.541 24.0568C120.215 23.3826 120.053 22.5985 120.053 21.7045C120.053 20.8106 120.215 20.0227 120.541 19.3409C120.871 18.6553 121.329 18.1212 121.916 17.7386C122.507 17.3523 123.196 17.1591 123.984 17.1591C124.439 17.1591 124.888 17.2348 125.331 17.3864C125.774 17.5379 126.178 17.7841 126.541 18.125C126.905 18.4621 127.195 18.9091 127.411 19.4659C127.626 20.0227 127.734 20.7083 127.734 21.5227V22.0909H121.007V20.9318H126.371C126.371 20.4394 126.272 20 126.075 19.6136C125.882 19.2273 125.606 18.9223 125.246 18.6989C124.89 18.4754 124.469 18.3636 123.984 18.3636C123.45 18.3636 122.988 18.4962 122.598 18.7614C122.212 19.0227 121.914 19.3636 121.706 19.7841C121.498 20.2045 121.393 20.6553 121.393 21.1364V21.9091C121.393 22.5682 121.507 23.1269 121.734 23.5852C121.965 24.0398 122.286 24.3864 122.695 24.625C123.104 24.8598 123.579 24.9773 124.121 24.9773C124.473 24.9773 124.791 24.928 125.075 24.8295C125.363 24.7273 125.611 24.5758 125.82 24.375C126.028 24.1705 126.189 23.9167 126.303 23.6136L127.598 23.9773C127.462 24.4167 127.232 24.803 126.911 25.1364C126.589 25.4659 126.191 25.7235 125.717 25.9091C125.244 26.0909 124.712 26.1818 124.121 26.1818ZM129.774 26V17.2727H131.07V18.5909H131.161C131.32 18.1591 131.607 17.8087 132.024 17.5398C132.441 17.2708 132.911 17.1364 133.433 17.1364C133.532 17.1364 133.655 17.1383 133.803 17.142C133.95 17.1458 134.062 17.1515 134.138 17.1591V18.5227C134.092 18.5114 133.988 18.4943 133.825 18.4716C133.666 18.4451 133.498 18.4318 133.32 18.4318C132.895 18.4318 132.517 18.5208 132.183 18.6989C131.854 18.8731 131.592 19.1155 131.399 19.4261C131.21 19.733 131.115 20.0833 131.115 20.4773V26H129.774Z" fill="#B0B0B0"/>
</svg>
