<svg width="51" height="51" viewBox="0 0 51 51" fill="none" xmlns="http://www.w3.org/2000/svg">
<g clip-path="url(#clip0_245_3161)">
<path d="M25.106 0C11.2405 0 0 11.2405 0 25.106C0 36.8797 8.10622 46.7594 19.0414 49.4729V32.7784H13.8645V25.106H19.0414V21.8C19.0414 13.255 22.9087 9.29424 31.2981 9.29424C32.8889 9.29424 35.6334 9.60656 36.7562 9.91787V16.8722C36.1637 16.81 35.1343 16.7788 33.8559 16.7788C29.7396 16.7788 28.1488 18.3384 28.1488 22.3925V25.106H36.3495L34.9405 32.7784H28.1488V50.0282C40.5803 48.5269 50.213 37.9422 50.213 25.106C50.212 11.2405 38.9715 0 25.106 0Z" fill="white"/>
</g>
<defs>
<clipPath id="clip0_245_3161">
<rect width="50.212" height="50.212" fill="white"/>
</clipPath>
</defs>
</svg>
