<svg width="60" height="68" viewBox="0 0 60 68" fill="none" xmlns="http://www.w3.org/2000/svg">
<path d="M58.7235 0C59.3727 0 59.8499 0.609019 59.6944 1.23937L58.33 6.77372C58.2199 7.22042 57.8192 7.53435 57.3591 7.53435H53.7331C53.4933 7.53435 53.2873 7.70455 53.2421 7.94001L44.7909 51.9291C44.7004 52.4 44.2884 52.7404 43.8088 52.7404H12.2971C11.8481 52.7404 11.4542 52.4412 11.3338 52.0086L0.353101 12.5697C0.175655 11.9324 0.654887 11.3015 1.31646 11.3015H40.8255C41.4515 11.3015 41.9236 11.8702 41.8084 12.4855L40.7727 18.0198C40.6842 18.4929 40.2711 18.8359 39.7898 18.8359H8.17824C7.84745 18.8359 7.60783 19.1513 7.69656 19.47L14.7606 44.8402C14.8208 45.0565 15.0178 45.2061 15.2423 45.2061H40.5185C40.7587 45.2061 40.9649 45.0353 41.0097 44.7993L49.3581 0.813534C49.4477 0.341581 49.8602 0 50.3406 0H58.7235ZM21.25 56.5076C19.18 56.5076 17.5 59.0391 17.5 62.1584C17.5 65.2813 19.18 67.8091 21.25 67.8091C23.32 67.8091 25 65.2813 25 62.1584C25 59.0391 23.32 56.5076 21.25 56.5076ZM33.75 56.5076C31.68 56.5076 30 59.0354 30 62.1584C30 65.2813 31.68 67.8091 33.75 67.8091C35.82 67.8091 37.5 65.2813 37.5 62.1584C37.5 59.0391 35.82 56.5076 33.75 56.5076Z" fill="black"/>
</svg>
