<svg width="60" height="68" viewBox="0 0 60 68" fill="none" xmlns="http://www.w3.org/2000/svg">
<path d="M29.9912 0C39.7582 0 47.6531 7.40939 47.6531 16.5388C47.6531 25.6682 39.7582 33.0776 29.9912 33.0776C20.2418 33.0776 12.3292 25.6682 12.3292 16.5388C12.3292 7.40939 20.2418 0 29.9912 0ZM29.9912 6.61552C24.1451 6.61552 19.394 11.0645 19.394 16.5388C19.394 22.0132 24.1451 26.4621 29.9912 26.4621C35.8549 26.4621 40.5884 22.0132 40.5884 16.5388C40.5884 11.0645 35.8549 6.61552 29.9912 6.61552ZM29.9912 38.0393C48.1653 38.0393 59.416 49.5999 59.9989 66.1552C60.0342 67.0649 59.2394 67.8091 58.2503 67.8091H54.7179C53.7465 67.8091 52.9694 67.0649 52.9341 66.1552C52.4042 53.1888 44.2797 44.6548 29.9912 44.6548C15.7203 44.6548 7.59578 53.1888 7.06592 66.1552C7.0306 67.0649 6.25347 67.8091 5.2644 67.8091H1.73201C0.760599 67.8091 -0.0341902 67.0649 0.00113373 66.1552C0.583979 49.5999 11.8347 38.0393 29.9912 38.0393Z" fill="black"/>
</svg>
