<svg width="51" height="51" viewBox="0 0 51 51" fill="none" xmlns="http://www.w3.org/2000/svg">
<path d="M25.8941 4.52104C32.6021 4.52104 33.3965 4.55046 36.0345 4.66814C38.4863 4.77602 39.8103 5.18792 40.6929 5.53116C41.8599 5.98229 42.7033 6.53148 43.5761 7.40431C44.4588 8.28694 44.9982 9.12054 45.4493 10.2876C45.7925 11.1702 46.2044 12.504 46.3123 14.9459C46.43 17.5938 46.4594 18.3882 46.4594 25.0864C46.4594 31.7944 46.43 32.5888 46.3123 35.2268C46.2044 37.6786 45.7925 39.0026 45.4493 39.8852C44.9982 41.0522 44.449 41.8956 43.5761 42.7685C42.6935 43.6511 41.8599 44.1905 40.6929 44.6416C39.8103 44.9848 38.4765 45.3967 36.0345 45.5046C33.3866 45.6223 32.5923 45.6517 25.8941 45.6517C19.1861 45.6517 18.3917 45.6223 15.7536 45.5046C13.3019 45.3967 11.9779 44.9848 11.0953 44.6416C9.92824 44.1905 9.08483 43.6413 8.21201 42.7685C7.32937 41.8858 6.78999 41.0522 6.33886 39.8852C5.99562 39.0026 5.58372 37.6688 5.47585 35.2268C5.35816 32.5789 5.32874 31.7846 5.32874 25.0864C5.32874 18.3784 5.35816 17.584 5.47585 14.9459C5.58372 12.4942 5.99562 11.1702 6.33886 10.2876C6.78999 9.12054 7.33918 8.27713 8.21201 7.40431C9.09464 6.52167 9.92824 5.98229 11.0953 5.53116C11.9779 5.18792 13.3117 4.77602 15.7536 4.66814C18.3917 4.55046 19.1861 4.52104 25.8941 4.52104ZM25.8941 0C19.0782 0 18.225 0.0294211 15.5477 0.147105C12.8802 0.26479 11.0462 0.696299 9.4575 1.31414C7.80011 1.96141 6.39771 2.81462 5.00511 4.21702C3.6027 5.60962 2.74949 7.01203 2.10223 8.65961C1.48438 10.2582 1.05288 12.0823 0.935191 14.7498C0.817507 17.4369 0.788086 18.2901 0.788086 25.106C0.788086 31.9219 0.817507 32.7751 0.935191 35.4524C1.05288 38.1199 1.48438 39.9538 2.10223 41.5426C2.74949 43.2 3.6027 44.6024 5.00511 45.995C6.39771 47.3876 7.80011 48.2506 9.44769 48.888C11.0462 49.5059 12.8703 49.9374 15.5379 50.0551C18.2152 50.1728 19.0684 50.2022 25.8843 50.2022C32.7002 50.2022 33.5534 50.1728 36.2307 50.0551C38.8982 49.9374 40.7321 49.5059 42.3209 48.888C43.9684 48.2506 45.3708 47.3876 46.7634 45.995C48.156 44.6024 49.019 43.2 49.6565 41.5524C50.2743 39.9538 50.7059 38.1297 50.8235 35.4622C50.9412 32.7849 50.9707 31.9317 50.9707 25.1158C50.9707 18.2999 50.9412 17.4467 50.8235 14.7694C50.7059 12.1019 50.2743 10.268 49.6565 8.67922C49.0387 7.01202 48.1855 5.60962 46.7831 4.21702C45.3905 2.82442 43.988 1.96141 42.3405 1.32395C40.7419 0.706106 38.9178 0.274597 36.2503 0.156912C33.5632 0.0294211 32.71 0 25.8941 0Z" fill="white"/>
<path d="M25.894 12.2097C18.7741 12.2097 12.9978 17.9861 12.9978 25.106C12.9978 32.2259 18.7741 38.0022 25.894 38.0022C33.0139 38.0022 38.7903 32.2259 38.7903 25.106C38.7903 17.9861 33.0139 12.2097 25.894 12.2097ZM25.894 33.4713C21.2749 33.4713 17.5286 29.7251 17.5286 25.106C17.5286 20.4868 21.2749 16.7406 25.894 16.7406C30.5132 16.7406 34.2594 20.4868 34.2594 25.106C34.2594 29.7251 30.5132 33.4713 25.894 33.4713Z" fill="white"/>
</svg>
