<svg width="206" height="91" viewBox="0 0 206 91" fill="none" xmlns="http://www.w3.org/2000/svg">
<rect width="206" height="91" fill="#7E0000"/>
<path d="M25.5 54.275V38.45H37.25V41.7H29.5V44.7H36.225V47.95H29.5V51.025H37.25V54.275H25.5ZM38.6951 50.825C39.9951 51.1917 41.4368 51.375 43.0201 51.375C43.7868 51.375 44.3618 51.35 44.7451 51.3C45.1285 51.25 45.3868 51.1667 45.5201 51.05C45.6535 50.9333 45.7201 50.775 45.7201 50.575C45.7201 50.2917 45.6118 50.1167 45.3951 50.05C45.1951 49.9833 44.7868 49.8917 44.1701 49.775L42.1951 49.4C40.9285 49.15 40.0118 48.7583 39.4451 48.225C38.8951 47.675 38.6201 46.8583 38.6201 45.775C38.6201 44.3083 39.0535 43.3083 39.9201 42.775C40.8035 42.2417 42.2035 41.975 44.1201 41.975C45.2701 41.975 46.2785 42.0417 47.1451 42.175C48.0285 42.2917 48.7618 42.4417 49.3451 42.625L49.2951 45.65L49.2201 45.725C47.8701 45.2917 46.3951 45.075 44.7951 45.075C44.0118 45.075 43.4618 45.1333 43.1451 45.25C42.8451 45.35 42.6951 45.5583 42.6951 45.875C42.6951 46.0417 42.7368 46.175 42.8201 46.275C42.9201 46.375 43.1368 46.475 43.4701 46.575C43.8035 46.6583 44.3285 46.7667 45.0451 46.9L46.8701 47.25C47.8868 47.4667 48.6368 47.825 49.1201 48.325C49.6035 48.825 49.8451 49.6167 49.8451 50.7C49.8451 51.65 49.6701 52.4083 49.3201 52.975C48.9701 53.525 48.3785 53.9167 47.5451 54.15C46.7285 54.3833 45.5951 54.5 44.1451 54.5C43.0451 54.5 42.0285 54.45 41.0951 54.35C40.1785 54.2333 39.3535 54.1 38.6201 53.95V50.875L38.6951 50.825ZM55.9648 58.925H51.9648V42.1H55.7648L55.9648 43.825V43.975H56.0148C56.2982 43.2917 56.6982 42.7917 57.2148 42.475C57.7482 42.1417 58.5148 41.975 59.5148 41.975C61.1315 41.975 62.3148 42.45 63.0648 43.4C63.8315 44.3333 64.2232 45.75 64.2398 47.65C64.2732 49.3333 64.0982 50.6833 63.7148 51.7C63.3482 52.7 62.7732 53.4167 61.9898 53.85C61.2065 54.2833 60.2065 54.5 58.9898 54.5C58.3565 54.5 57.7815 54.4417 57.2648 54.325C56.7648 54.2083 56.3482 54.0667 56.0148 53.9L55.9648 53.925V58.925ZM58.2148 45.375C57.5482 45.375 57.0065 45.5833 56.5898 46C56.1732 46.4 55.9648 47.0917 55.9648 48.075V50.7C56.5815 50.95 57.3065 51.075 58.1398 51.075C58.9232 51.075 59.4815 50.8917 59.8148 50.525C60.1648 50.1417 60.3398 49.3833 60.3398 48.25C60.3398 47.2667 60.2065 46.5417 59.9398 46.075C59.6732 45.6083 59.0982 45.375 58.2148 45.375ZM70.3691 54.275H66.3691V42.1H69.6191L69.9441 44.6H70.0191C70.1691 43.6667 70.5275 43 71.0941 42.6C71.6608 42.1833 72.5025 41.975 73.6191 41.975C74.0691 41.975 74.4775 42 74.8441 42.05C75.2108 42.0833 75.5191 42.1167 75.7691 42.15V46.05L75.7191 46.1C75.4525 46.0333 75.1441 45.975 74.7941 45.925C74.4608 45.875 74.0775 45.85 73.6441 45.85C73.0275 45.85 72.4691 45.95 71.9691 46.15C71.4858 46.35 71.1025 46.7417 70.8191 47.325C70.5525 47.8917 70.4191 48.7417 70.4191 49.875L70.3691 54.275ZM81.3014 37.575C81.3514 38.175 81.3764 38.675 81.3764 39.075C81.3764 39.3083 81.368 39.55 81.3514 39.8C81.3514 40.0333 81.3347 40.3 81.3014 40.6C80.9514 40.6667 80.6097 40.7167 80.2764 40.75C79.943 40.7833 79.6097 40.8 79.2764 40.8C78.9597 40.8 78.6347 40.7833 78.3014 40.75C77.9847 40.7167 77.6597 40.6667 77.3264 40.6C77.293 40.3167 77.268 40.0583 77.2514 39.825C77.2347 39.575 77.2264 39.3333 77.2264 39.1C77.2264 38.8833 77.2347 38.65 77.2514 38.4C77.268 38.15 77.293 37.875 77.3264 37.575C77.6597 37.4917 77.993 37.4417 78.3264 37.425C78.6764 37.3917 79.018 37.375 79.3514 37.375C79.668 37.375 79.9847 37.3917 80.3014 37.425C80.6347 37.4417 80.968 37.4917 81.3014 37.575ZM81.3014 54.275H77.3014V42.1H81.3014V54.275ZM84.3193 50.625V45.375H82.8193V42.125H84.6943L85.4443 39.15H88.3193V42.125H91.0443V45.375H88.3193V49.75C88.3193 50.2167 88.3777 50.5417 88.4943 50.725C88.611 50.8917 88.8777 50.975 89.2943 50.975C89.561 50.975 89.8443 50.9667 90.1443 50.95C90.4443 50.9167 90.7443 50.8833 91.0443 50.85L91.1193 50.9V54.15C90.3193 54.3833 89.261 54.5 87.9443 54.5C86.6277 54.5 85.6943 54.2 85.1443 53.6C84.5943 53 84.3193 52.0083 84.3193 50.625ZM104.116 54.275V41.825H99.6162V38.45H112.616V41.825H108.116V54.275H104.116ZM113.617 49.575V46.45H123.817V49.575H113.617ZM125.662 50.2C126.395 50.45 127.195 50.65 128.062 50.8C128.945 50.9333 129.82 51 130.687 51C131.87 51 132.745 50.95 133.312 50.85C133.895 50.7333 134.278 50.5583 134.462 50.325C134.645 50.0917 134.737 49.7917 134.737 49.425C134.737 49.1083 134.67 48.8583 134.537 48.675C134.403 48.4917 134.145 48.35 133.762 48.25C133.378 48.1333 132.812 48.0417 132.062 47.975L130.412 47.825C129.178 47.7083 128.203 47.45 127.487 47.05C126.787 46.65 126.287 46.1167 125.987 45.45C125.703 44.7667 125.562 43.95 125.562 43C125.562 41.8667 125.787 40.95 126.237 40.25C126.703 39.55 127.453 39.0417 128.487 38.725C129.52 38.3917 130.895 38.225 132.612 38.225C134.845 38.225 136.687 38.5167 138.137 39.1L138.062 42.5L137.987 42.6C136.337 42.0167 134.612 41.725 132.812 41.725C131.945 41.725 131.278 41.775 130.812 41.875C130.345 41.9583 130.02 42.1 129.837 42.3C129.653 42.5 129.562 42.7833 129.562 43.15C129.562 43.5167 129.62 43.7917 129.737 43.975C129.87 44.1583 130.128 44.3 130.512 44.4C130.895 44.4833 131.453 44.5667 132.187 44.65L133.762 44.825C135.095 44.975 136.12 45.2417 136.837 45.625C137.553 46.0083 138.045 46.525 138.312 47.175C138.595 47.8083 138.737 48.5833 138.737 49.5C138.737 50.6167 138.495 51.55 138.012 52.3C137.545 53.0333 136.778 53.5833 135.712 53.95C134.645 54.3167 133.22 54.5 131.437 54.5C130.27 54.5 129.22 54.4417 128.287 54.325C127.353 54.1917 126.445 54.0167 125.562 53.8V50.275L125.662 50.2ZM145.247 54.275H141.247V37.475H145.247V44.325H145.322C145.555 43.575 145.98 43 146.597 42.6C147.23 42.1833 148.055 41.975 149.072 41.975C150.039 41.975 150.83 42.1333 151.447 42.45C152.08 42.7667 152.547 43.325 152.847 44.125C153.164 44.9083 153.322 46.0167 153.322 47.45V54.275H149.322L149.297 48.225C149.297 47.2917 149.155 46.625 148.872 46.225C148.589 45.825 148.055 45.625 147.272 45.625C146.572 45.625 146.064 45.8083 145.747 46.175C145.43 46.5417 145.264 47.1583 145.247 48.025V54.275ZM159.817 37.575C159.867 38.175 159.892 38.675 159.892 39.075C159.892 39.3083 159.884 39.55 159.867 39.8C159.867 40.0333 159.85 40.3 159.817 40.6C159.467 40.6667 159.125 40.7167 158.792 40.75C158.459 40.7833 158.125 40.8 157.792 40.8C157.475 40.8 157.15 40.7833 156.817 40.75C156.5 40.7167 156.175 40.6667 155.842 40.6C155.809 40.3167 155.784 40.0583 155.767 39.825C155.75 39.575 155.742 39.3333 155.742 39.1C155.742 38.8833 155.75 38.65 155.767 38.4C155.784 38.15 155.809 37.875 155.842 37.575C156.175 37.4917 156.509 37.4417 156.842 37.425C157.192 37.3917 157.534 37.375 157.867 37.375C158.184 37.375 158.5 37.3917 158.817 37.425C159.15 37.4417 159.484 37.4917 159.817 37.575ZM159.817 54.275H155.817V42.1H159.817V54.275ZM166.585 54.275H162.585V42.1H165.835L166.16 44.6H166.235C166.385 43.6667 166.743 43 167.31 42.6C167.877 42.1833 168.718 41.975 169.835 41.975C170.285 41.975 170.693 42 171.06 42.05C171.427 42.0833 171.735 42.1167 171.985 42.15V46.05L171.935 46.1C171.668 46.0333 171.36 45.975 171.01 45.925C170.677 45.875 170.293 45.85 169.86 45.85C169.243 45.85 168.685 45.95 168.185 46.15C167.702 46.35 167.318 46.7417 167.035 47.325C166.768 47.8917 166.635 48.7417 166.635 49.875L166.585 54.275ZM173.992 50.625V45.375H172.492V42.125H174.367L175.117 39.15H177.992V42.125H180.717V45.375H177.992V49.75C177.992 50.2167 178.051 50.5417 178.167 50.725C178.284 50.8917 178.551 50.975 178.967 50.975C179.234 50.975 179.517 50.9667 179.817 50.95C180.117 50.9167 180.417 50.8833 180.717 50.85L180.792 50.9V54.15C179.992 54.3833 178.934 54.5 177.617 54.5C176.301 54.5 175.367 54.2 174.817 53.6C174.267 53 173.992 52.0083 173.992 50.625Z" fill="white"/>
</svg>
